<?xml version="1.0" standalone="no"?>
<!DOCTYPE svg PUBLIC "-//W3C//DTD SVG 20010904//EN"
 "http://www.w3.org/TR/2001/REC-SVG-20010904/DTD/svg10.dtd">
<svg version="1.0" xmlns="http://www.w3.org/2000/svg"
 width="599.000000pt" height="594.000000pt" viewBox="0 0 599.000000 594.000000"
 preserveAspectRatio="xMidYMid meet">

<g transform="translate(0.000000,594.000000) scale(0.100000,-0.100000)"
fill="#000000" stroke="none">
<path d="M130 3622 l0 -2197 653 -653 652 -652 2173 2 2172 3 -677 677 -678
678 -2112 0 -2113 0 0 2135 0 2135 2135 0 2135 0 0 -2113 0 -2112 680 -680
680 -680 0 2175 0 2175 -653 653 -652 652 -2198 0 -2197 0 0 -2198z"/>
<path d="M880 4695 l0 -295 293 0 292 0 295 295 295 295 -588 0 -587 0 0 -295z"/>
<path d="M2040 4695 l-295 -295 590 0 590 0 -295 295 c-162 162 -295 295 -295
295 0 0 -133 -133 -295 -295z"/>
<path d="M2630 4982 c0 -4 129 -136 288 -295 l287 -287 293 0 292 0 0 295 0
295 -580 0 c-319 0 -580 -3 -580 -8z"/>
<path d="M1900 3615 l0 -585 440 0 440 0 0 585 0 585 -440 0 -440 0 0 -585z"/>
<path d="M885 2817 c-3 -7 -4 -140 -3 -297 l3 -285 574 -3 c316 -1 578 1 583
6 4 4 -124 139 -285 300 l-293 292 -287 0 c-222 0 -289 -3 -292 -13z"/>
<path d="M1760 2822 c0 -4 131 -138 290 -297 l290 -290 290 290 c160 159 290
293 290 297 0 5 -261 8 -580 8 -319 0 -580 -3 -580 -8z"/>
<path d="M2922 2537 c-160 -160 -292 -295 -292 -300 0 -4 261 -7 580 -7 l580
0 0 300 0 300 -288 0 -287 0 -293 -293z"/>
</g>
</svg>
